<svg width="282" height="282" viewBox="0 0 282 282" fill="none" xmlns="http://www.w3.org/2000/svg">
<g clip-path="url(#clip0_9_160)">
<rect width="282" height="282" rx="141" fill="white"/>
<path d="M255.344 175.047C257.399 175.67 259.576 174.51 260.135 172.437C268.169 142.629 264.859 110.858 250.764 83.373C236.077 54.7354 210.839 33.0049 180.406 22.795C149.974 12.585 116.743 14.6995 87.7697 28.6896C58.7961 42.6796 36.3609 67.4436 25.2269 97.7242C14.0928 128.005 15.1368 161.418 28.137 190.869C41.1372 220.321 65.0701 243.493 94.8548 255.465C124.639 267.437 157.931 267.267 187.661 254.99C216.196 243.208 239.293 221.163 252.481 193.252C253.398 191.312 252.493 189.02 250.526 188.162C248.556 187.302 246.268 188.208 245.346 190.149C232.971 216.192 211.378 236.758 184.72 247.766C156.863 259.269 125.671 259.428 97.7632 248.21C69.8558 236.993 47.4314 215.282 35.2505 187.687C23.0697 160.091 22.0916 128.784 32.5238 100.412C42.9561 72.0401 63.9773 48.8369 91.1247 35.7287C118.272 22.6204 149.408 20.6392 177.922 30.2056C206.437 39.7721 230.085 60.1329 243.845 86.9655C257.015 112.646 260.136 142.318 252.689 170.179C252.135 172.253 253.289 174.424 255.344 175.047Z" fill="#8C2F4E"/>
<path d="M114.319 152L114.016 151.24L129.816 117.665L130.044 123.97C129.132 125.489 128.119 126.831 127.005 127.996C125.942 129.161 124.752 130.173 123.435 131.034C122.169 131.845 120.852 132.478 119.485 132.933C118.118 133.339 116.725 133.541 115.307 133.541C112.42 133.541 109.762 132.781 107.331 131.262C104.9 129.743 102.95 127.717 101.482 125.185C100.013 122.653 99.2789 119.893 99.2789 116.905C99.2789 113.31 100.089 110.094 101.71 107.258C103.33 104.372 105.533 102.093 108.318 100.421C111.154 98.7503 114.319 97.9147 117.814 97.9147C120.346 97.9147 122.726 98.3705 124.954 99.282C127.182 100.194 129.132 101.485 130.803 103.156C132.474 104.777 133.791 106.676 134.753 108.853C135.716 110.98 136.197 113.259 136.197 115.69C136.197 116.956 136.07 118.323 135.817 119.792C135.564 121.21 135.133 122.83 134.525 124.654C133.968 126.426 133.209 128.477 132.247 130.806C131.284 133.085 130.094 135.744 128.676 138.783L122.371 152H114.319ZM117.054 125.945C119.029 125.945 120.802 125.514 122.371 124.654C123.941 123.742 125.157 122.552 126.018 121.083C126.929 119.564 127.385 117.868 127.385 115.994C127.385 114.019 126.955 112.246 126.094 110.676C125.233 109.056 124.017 107.79 122.447 106.878C120.928 105.967 119.181 105.511 117.206 105.511C115.383 105.511 113.762 105.967 112.344 106.878C110.926 107.739 109.787 108.955 108.926 110.524C108.116 112.044 107.711 113.842 107.711 115.918C107.711 117.69 108.116 119.336 108.926 120.855C109.787 122.375 110.926 123.615 112.344 124.578C113.762 125.489 115.332 125.945 117.054 125.945ZM161.855 152.76C157.804 152.76 154.31 151.646 151.373 149.417C148.486 147.189 146.258 144.049 144.688 139.998C143.118 135.896 142.333 131.034 142.333 125.413C142.333 119.792 143.118 114.956 144.688 110.904C146.258 106.802 148.486 103.637 151.373 101.409C154.31 99.1808 157.804 98.0666 161.855 98.0666C165.907 98.0666 169.401 99.1808 172.338 101.409C175.275 103.637 177.529 106.802 179.099 110.904C180.669 114.956 181.454 119.792 181.454 125.413C181.454 131.034 180.669 135.896 179.099 139.998C177.529 144.049 175.275 147.189 172.338 149.417C169.401 151.646 165.907 152.76 161.855 152.76ZM161.855 145.315C165.552 145.315 168.413 143.593 170.439 140.15C172.465 136.656 173.478 131.743 173.478 125.413C173.478 119.083 172.465 114.196 170.439 110.752C168.413 107.258 165.552 105.511 161.855 105.511C158.158 105.511 155.297 107.258 153.272 110.752C151.246 114.196 150.233 119.083 150.233 125.413C150.233 131.743 151.246 136.656 153.272 140.15C155.297 143.593 158.158 145.315 161.855 145.315Z" fill="#8C2F4E"/>
<path d="M114.54 179.479V163.526H120.556C121.65 163.526 122.645 163.724 123.541 164.119C124.453 164.499 125.243 165.046 125.911 165.76C126.58 166.474 127.096 167.317 127.461 168.289C127.825 169.262 128.008 170.333 128.008 171.502C128.008 172.672 127.825 173.751 127.461 174.738C127.096 175.711 126.58 176.554 125.911 177.268C125.258 177.967 124.476 178.514 123.564 178.909C122.652 179.289 121.65 179.479 120.556 179.479H114.54ZM116.317 178.066L116.112 177.747H120.442C121.277 177.747 122.045 177.602 122.744 177.314C123.458 177.01 124.065 176.584 124.567 176.037C125.083 175.475 125.478 174.814 125.752 174.055C126.04 173.295 126.185 172.444 126.185 171.502C126.185 170.561 126.04 169.71 125.752 168.95C125.478 168.19 125.083 167.537 124.567 166.99C124.05 166.428 123.442 166.003 122.744 165.714C122.045 165.41 121.277 165.258 120.442 165.258H116.044L116.317 164.985V178.066ZM135.441 179.706C134.408 179.706 133.473 179.441 132.638 178.909C131.802 178.362 131.141 177.625 130.655 176.698C130.169 175.756 129.926 174.693 129.926 173.508C129.926 172.308 130.176 171.244 130.678 170.317C131.179 169.391 131.848 168.661 132.683 168.13C133.534 167.598 134.484 167.332 135.532 167.332C136.155 167.332 136.732 167.423 137.264 167.606C137.795 167.788 138.266 168.046 138.677 168.38C139.102 168.699 139.451 169.079 139.725 169.52C140.014 169.945 140.211 170.409 140.317 170.91L139.816 170.659L139.884 167.583H141.594V179.479H139.862V176.562L140.317 176.265C140.211 176.721 140.006 177.162 139.702 177.587C139.398 177.997 139.026 178.362 138.585 178.681C138.16 179 137.674 179.251 137.127 179.433C136.595 179.615 136.033 179.706 135.441 179.706ZM135.828 178.066C136.618 178.066 137.325 177.876 137.947 177.496C138.57 177.101 139.056 176.562 139.406 175.878C139.77 175.179 139.953 174.389 139.953 173.508C139.953 172.627 139.77 171.844 139.406 171.161C139.056 170.477 138.57 169.938 137.947 169.543C137.325 169.148 136.618 168.95 135.828 168.95C135.023 168.95 134.309 169.148 133.686 169.543C133.078 169.938 132.592 170.477 132.227 171.161C131.878 171.844 131.703 172.627 131.703 173.508C131.703 174.374 131.878 175.156 132.227 175.855C132.577 176.539 133.063 177.078 133.686 177.473C134.309 177.868 135.023 178.066 135.828 178.066ZM146.662 184.72L148.963 179.114L149.123 180.732L143.152 167.583H145.089L149.169 176.698C149.29 176.941 149.412 177.23 149.533 177.564C149.655 177.883 149.769 178.202 149.875 178.521L149.237 178.453C149.343 178.195 149.442 177.929 149.533 177.655C149.64 177.382 149.738 177.116 149.829 176.858L153.407 167.583H155.367L150.559 179.479L148.508 184.72H146.662ZM160.838 179.706C159.82 179.706 158.908 179.516 158.103 179.137C157.298 178.757 156.66 178.256 156.189 177.633L157.397 176.584C157.837 177.116 158.354 177.519 158.946 177.792C159.554 178.066 160.23 178.202 160.975 178.202C161.354 178.202 161.696 178.164 162 178.088C162.304 177.997 162.57 177.868 162.798 177.701C163.026 177.534 163.2 177.336 163.322 177.108C163.443 176.881 163.504 176.63 163.504 176.356C163.504 175.855 163.284 175.437 162.843 175.103C162.646 174.966 162.365 174.83 162 174.693C161.635 174.541 161.195 174.397 160.678 174.26C159.827 174.017 159.121 173.774 158.559 173.531C157.997 173.272 157.556 172.976 157.237 172.642C157.009 172.368 156.835 172.072 156.713 171.753C156.607 171.434 156.554 171.085 156.554 170.705C156.554 170.219 156.652 169.771 156.85 169.36C157.062 168.95 157.351 168.593 157.716 168.289C158.096 167.97 158.536 167.735 159.037 167.583C159.554 167.416 160.109 167.332 160.701 167.332C161.263 167.332 161.818 167.408 162.365 167.56C162.912 167.712 163.421 167.932 163.891 168.221C164.362 168.51 164.765 168.851 165.099 169.246L164.051 170.386C163.762 170.082 163.443 169.808 163.094 169.565C162.744 169.322 162.372 169.132 161.977 168.996C161.597 168.859 161.202 168.791 160.792 168.791C160.428 168.791 160.086 168.836 159.767 168.927C159.463 169.018 159.197 169.148 158.969 169.315C158.756 169.467 158.589 169.657 158.468 169.884C158.361 170.112 158.308 170.363 158.308 170.636C158.308 170.864 158.354 171.069 158.445 171.252C158.536 171.434 158.665 171.594 158.832 171.73C159.045 171.897 159.341 172.057 159.721 172.209C160.116 172.346 160.602 172.49 161.18 172.642C161.848 172.824 162.41 173.014 162.866 173.212C163.337 173.394 163.724 173.614 164.028 173.872C164.438 174.176 164.727 174.526 164.894 174.921C165.077 175.316 165.168 175.764 165.168 176.265C165.168 176.934 164.978 177.526 164.598 178.043C164.233 178.559 163.724 178.97 163.071 179.273C162.418 179.562 161.673 179.706 160.838 179.706Z" fill="#8C2F4E"/>
<path d="M100.209 204.151C99.4436 204.151 98.7285 204.015 98.0638 203.743C97.3991 203.461 96.815 203.073 96.3114 202.58C95.8078 202.086 95.415 201.512 95.133 200.858C94.8611 200.193 94.7251 199.478 94.7251 198.712C94.7251 197.957 94.8611 197.252 95.133 196.598C95.415 195.943 95.8028 195.374 96.2963 194.89C96.7999 194.397 97.384 194.014 98.0487 193.742C98.7134 193.47 99.4285 193.334 100.194 193.334C100.728 193.334 101.246 193.41 101.75 193.561C102.264 193.712 102.727 193.924 103.14 194.195C103.553 194.467 103.89 194.78 104.152 195.132L103.095 196.235C102.792 195.943 102.48 195.701 102.158 195.51C101.846 195.318 101.523 195.172 101.191 195.072C100.859 194.971 100.526 194.921 100.194 194.921C99.6501 194.921 99.1465 195.016 98.6832 195.208C98.23 195.399 97.8271 195.666 97.4746 196.008C97.1322 196.351 96.8653 196.754 96.674 197.217C96.4826 197.67 96.3869 198.169 96.3869 198.712C96.3869 199.236 96.4876 199.735 96.6891 200.208C96.8905 200.671 97.1675 201.079 97.52 201.432C97.8825 201.784 98.2955 202.061 98.7588 202.263C99.2321 202.464 99.7306 202.565 100.254 202.565C100.647 202.565 101.02 202.509 101.372 202.399C101.725 202.278 102.037 202.112 102.309 201.9C102.581 201.689 102.792 201.447 102.943 201.175C103.095 200.893 103.17 200.596 103.17 200.284V199.982L103.397 200.193H100.164V198.577H104.847C104.867 198.687 104.882 198.798 104.892 198.909C104.902 199.01 104.907 199.11 104.907 199.211C104.917 199.302 104.922 199.392 104.922 199.483C104.922 200.178 104.802 200.812 104.56 201.386C104.318 201.95 103.981 202.439 103.548 202.852C103.125 203.265 102.626 203.587 102.052 203.819C101.488 204.04 100.874 204.151 100.209 204.151ZM111.156 204.091C110.34 204.091 109.61 203.914 108.966 203.562C108.321 203.199 107.812 202.706 107.44 202.081C107.077 201.447 106.896 200.732 106.896 199.936V193.41H108.527V199.8C108.527 200.314 108.648 200.777 108.89 201.19C109.132 201.593 109.449 201.915 109.842 202.157C110.245 202.399 110.683 202.519 111.156 202.519C111.66 202.519 112.113 202.399 112.516 202.157C112.929 201.915 113.256 201.593 113.498 201.19C113.739 200.777 113.86 200.314 113.86 199.8V193.41H115.416V199.936C115.416 200.732 115.23 201.447 114.857 202.081C114.495 202.706 113.991 203.199 113.347 203.562C112.702 203.914 111.972 204.091 111.156 204.091ZM116.832 204L120.926 193.425H122.588L126.651 204H124.914L122.497 197.625C122.467 197.554 122.406 197.383 122.316 197.111C122.235 196.839 122.139 196.537 122.029 196.205C121.918 195.872 121.817 195.57 121.727 195.298C121.636 195.016 121.575 194.835 121.545 194.754L121.893 194.739C121.832 194.911 121.757 195.127 121.666 195.389C121.586 195.651 121.495 195.928 121.394 196.22C121.304 196.512 121.213 196.789 121.122 197.051C121.032 197.302 120.956 197.514 120.896 197.685L118.494 204H116.832ZM118.645 201.371L119.249 199.8H124.053L124.748 201.371H118.645ZM128.513 204V193.425H133.015C133.619 193.425 134.173 193.576 134.676 193.878C135.19 194.17 135.598 194.573 135.9 195.087C136.202 195.59 136.353 196.159 136.353 196.794C136.353 197.368 136.202 197.902 135.9 198.395C135.598 198.889 135.195 199.287 134.691 199.589C134.188 199.881 133.629 200.027 133.015 200.027H130.144V204H128.513ZM134.797 204L132.108 199.226L133.785 198.848L136.776 204.015L134.797 204ZM130.144 198.456H133.166C133.458 198.456 133.72 198.385 133.951 198.244C134.183 198.093 134.364 197.892 134.495 197.64C134.626 197.378 134.691 197.091 134.691 196.779C134.691 196.426 134.606 196.119 134.435 195.857C134.273 195.585 134.042 195.374 133.74 195.223C133.448 195.072 133.115 194.996 132.743 194.996H130.144V198.456ZM137.914 204L142.008 193.425H143.67L147.734 204H145.996L143.579 197.625C143.549 197.554 143.489 197.383 143.398 197.111C143.317 196.839 143.222 196.537 143.111 196.205C143 195.872 142.899 195.57 142.809 195.298C142.718 195.016 142.658 194.835 142.627 194.754L142.975 194.739C142.914 194.911 142.839 195.127 142.748 195.389C142.668 195.651 142.577 195.928 142.476 196.22C142.386 196.512 142.295 196.789 142.204 197.051C142.114 197.302 142.038 197.514 141.978 197.685L139.576 204H137.914ZM139.727 201.371L140.331 199.8H145.135L145.83 201.371H139.727ZM149.595 204V193.425H151.06L157.526 202.081L157.284 202.217C157.244 201.966 157.209 201.694 157.179 201.402C157.148 201.099 157.118 200.782 157.088 200.45C157.068 200.107 157.048 199.75 157.027 199.377C157.017 198.994 157.007 198.597 156.997 198.184C156.987 197.771 156.982 197.343 156.982 196.9V193.425H158.614V204H157.118L150.758 195.661L150.924 195.449C150.975 196.064 151.015 196.587 151.045 197.021C151.085 197.443 151.116 197.806 151.136 198.108C151.166 198.4 151.186 198.642 151.196 198.833C151.206 199.015 151.211 199.166 151.211 199.287C151.221 199.407 151.226 199.513 151.226 199.604V204H149.595ZM163.583 204V194.996H160.622V193.425H168.267V194.996H165.215V204H163.583ZM170.279 204V193.425H176.941V194.996H171.91V202.429H176.941V204H170.279ZM171.019 199.362V197.791H176.11V199.362H171.019ZM179.558 204V193.425H186.22V194.996H181.19V202.429H186.22V204H179.558ZM180.298 199.362V197.791H185.39V199.362H180.298Z" fill="#8C2F4E"/>
<path d="M81.275 73.3H77.975C77.8 71.6 76.775 70.775 74.675 70.775C72.725 70.775 71.7 71.475 71.7 72.725C71.7 73.775 72.425 74.375 74.275 74.825C76.15 75.275 77.975 75.725 79.2 76.275C80.65 76.925 81.8 77.95 81.8 80.3C81.8 83.95 79.05 85.575 75.175 85.575C71.075 85.575 68.225 83.75 68.15 80.025H71.5C71.55 81.725 72.975 82.775 75.2 82.775C77.25 82.775 78.425 81.9 78.425 80.425C78.425 79.45 77.925 78.775 75.85 78.325C73.8 77.875 72.475 77.575 71.3 77.05C69.525 76.25 68.525 75.05 68.525 72.95C68.525 69.975 70.55 67.85 74.6 67.85C78.8 67.85 81.15 70.125 81.275 73.3ZM91.2416 82.6C93.7416 82.6 95.7416 80.85 95.7416 76.925C95.7416 73 94.1416 70.925 91.2416 70.925C88.3166 70.925 86.6916 73 86.6916 76.925C86.6916 80.85 88.3666 82.6 91.2416 82.6ZM91.2416 85.575C86.1416 85.575 83.2666 82.45 83.2666 76.85C83.2666 71.225 86.1416 67.85 91.2416 67.85C96.3416 67.85 99.1666 71.225 99.1666 76.925C99.1666 82.625 96.3416 85.575 91.2416 85.575ZM112.915 85H101.215V68.4H104.69V81.975H112.915V85ZM118.114 82.175H120.989C124.014 82.175 125.314 80.275 125.314 76.525C125.314 72.775 124.014 71.275 120.689 71.275H118.114V82.175ZM121.689 85H114.739V68.4H121.164C125.664 68.4 128.864 71.475 128.864 76.525C128.864 81.575 125.989 85 121.689 85ZM145.73 82.6C148.23 82.6 150.23 80.85 150.23 76.925C150.23 73 148.63 70.925 145.73 70.925C142.805 70.925 141.18 73 141.18 76.925C141.18 80.85 142.855 82.6 145.73 82.6ZM145.73 85.575C140.63 85.575 137.755 82.45 137.755 76.85C137.755 71.225 140.63 67.85 145.73 67.85C150.83 67.85 153.655 71.225 153.655 76.925C153.655 82.625 150.83 85.575 145.73 85.575ZM165.528 79.475V68.4H169.078V79.475C169.078 83.5 166.603 85.575 162.253 85.575C158.228 85.575 155.703 83.675 155.703 79.675V68.4H159.228V79.35C159.228 81.4 160.328 82.7 162.203 82.7C164.428 82.7 165.528 81.65 165.528 79.475ZM179.351 85H175.876V71.3H170.876V68.4H184.376V71.3H179.351V85ZM196.699 85H193.224V68.4H196.699V85ZM212.413 85H209.213L202.113 73.85V85H198.888V68.4H202.563L209.163 79.075V68.4H212.413V85Z" fill="#8C2F4E"/>
</g>
<defs>
<clipPath id="clip0_9_160">
<rect width="282" height="282" rx="141" fill="white"/>
</clipPath>
</defs>
</svg>
